<svg viewBox="0 0 512 512" xmlns="http://www.w3.org/2000/svg">
  <rect width="512" height="512" fill="#1B4965"/>
  <g transform="translate(28.9 42.9) scale(4.02)">
    <!-- D blanc (contre-poinçon évidé) -->
    <path fill-rule="evenodd" clip-rule="evenodd"
      d="M22 18 H52 C75 18 89 31 89 50 C89 69 75 82 52 82 H22 V18 Z
         M38 33 V67 H52 C65 67 72 60 72 50 C72 40 65 33 52 33 H38 Z"
      fill="#ffffff"/>
    <g stroke="#F4A300" stroke-width="4.4" stroke-linecap="round">
      <line x1="45" y1="43" x2="63" y2="43"/>
      <line x1="45" y1="50" x2="63" y2="50"/>
      <line x1="45" y1="57" x2="56" y2="57"/>
    </g>
    <g>
      <circle cx="74" cy="71" r="17" fill="#143850"/>
      <circle cx="74" cy="71" r="14" fill="#2BA84A"/>
      <path d="M67 71 L72.5 76.5 L82 65.5" fill="none" stroke="#fff"
        stroke-width="4" stroke-linecap="round" stroke-linejoin="round"/>
    </g>
  </g>
</svg>
